<?xml version="1.0" encoding="UTF-8" ?>
<svg version="1.1" width="128" height="128" xmlns="http://www.w3.org/2000/svg" shape-rendering="crispEdges">
<rect x="0" y="0" width="128" height="4" fill="#1A2750" />
<rect x="0" y="4" width="4" height="124" fill="#1A2750" />
<rect x="4" y="4" width="120" height="10" fill="#364E6A" />
<rect x="124" y="4" width="4" height="124" fill="#1A2750" />
<rect x="4" y="14" width="91" height="1" fill="#364E6A" />
<rect x="95" y="14" width="7" height="16" fill="#1A2750" />
<rect x="102" y="14" width="22" height="1" fill="#364E6A" />
<rect x="4" y="15" width="88" height="1" fill="#364E6A" />
<rect x="92" y="15" width="3" height="14" fill="#1A2750" />
<rect x="102" y="15" width="3" height="15" fill="#1A2750" />
<rect x="105" y="15" width="19" height="1" fill="#364E6A" />
<rect x="4" y="16" width="87" height="1" fill="#364E6A" />
<rect x="91" y="16" width="1" height="13" fill="#1A2750" />
<rect x="105" y="16" width="1" height="13" fill="#1A2750" />
<rect x="106" y="16" width="18" height="1" fill="#364E6A" />
<rect x="4" y="17" width="86" height="1" fill="#364E6A" />
<rect x="90" y="17" width="1" height="13" fill="#1A2750" />
<rect x="106" y="17" width="1" height="13" fill="#1A2750" />
<rect x="107" y="17" width="17" height="1" fill="#364E6A" />
<rect x="4" y="18" width="85" height="1" fill="#364E6A" />
<rect x="89" y="18" width="1" height="12" fill="#1A2750" />
<rect x="107" y="18" width="1" height="13" fill="#1A2750" />
<rect x="108" y="18" width="16" height="1" fill="#364E6A" />
<rect x="4" y="19" width="84" height="1" fill="#364E6A" />
<rect x="88" y="19" width="1" height="11" fill="#1A2750" />
<rect x="108" y="19" width="1" height="13" fill="#1A2750" />
<rect x="109" y="19" width="15" height="1" fill="#364E6A" />
<rect x="4" y="20" width="83" height="2" fill="#364E6A" />
<rect x="87" y="20" width="1" height="9" fill="#1A2750" />
<rect x="109" y="20" width="1" height="11" fill="#1A2750" />
<rect x="110" y="20" width="14" height="2" fill="#364E6A" />
<rect x="4" y="22" width="82" height="6" fill="#364E6A" />
<rect x="86" y="22" width="1" height="6" fill="#1A2750" />
<rect x="110" y="22" width="1" height="7" fill="#1A2750" />
<rect x="111" y="22" width="13" height="39" fill="#364E6A" />
<rect x="4" y="28" width="81" height="1" fill="#364E6A" />
<rect x="85" y="28" width="2" height="19" fill="#88FF87" />
<rect x="4" y="29" width="80" height="1" fill="#364E6A" />
<rect x="84" y="29" width="1" height="5" fill="#88FF87" />
<rect x="87" y="29" width="1" height="20" fill="#88FF87" />
<rect x="91" y="29" width="3" height="1" fill="#88FF87" />
<rect x="94" y="29" width="1" height="1" fill="#1A2750" />
<rect x="105" y="29" width="1" height="23" fill="#88FF87" />
<rect x="110" y="29" width="1" height="25" fill="#364E6A" />
<rect x="4" y="30" width="79" height="9" fill="#364E6A" />
<rect x="83" y="30" width="1" height="3" fill="#88FF87" />
<rect x="88" y="30" width="5" height="1" fill="#88FF87" />
<rect x="93" y="30" width="1" height="5" fill="#734B5E" />
<rect x="94" y="30" width="1" height="1" fill="#88FF87" />
<rect x="95" y="30" width="6" height="1" fill="#1A2750" />
<rect x="101" y="30" width="4" height="23" fill="#88FF87" />
<rect x="106" y="30" width="1" height="22" fill="#88FF87" />
<rect x="88" y="31" width="4" height="3" fill="#88FF87" />
<rect x="92" y="31" width="1" height="5" fill="#734B5E" />
<rect x="94" y="31" width="1" height="2" fill="#734B5E" />
<rect x="95" y="31" width="4" height="24" fill="#88FF87" />
<rect x="99" y="31" width="1" height="1" fill="#1A2750" />
<rect x="100" y="31" width="1" height="27" fill="#88FF87" />
<rect x="107" y="31" width="1" height="21" fill="#88FF87" />
<rect x="109" y="31" width="1" height="22" fill="#364E6A" />
<rect x="99" y="32" width="1" height="26" fill="#88FF87" />
<rect x="108" y="32" width="1" height="20" fill="#364E6A" />
<rect x="83" y="33" width="1" height="12" fill="#364E6A" />
<rect x="94" y="33" width="1" height="21" fill="#88FF87" />
<rect x="84" y="34" width="1" height="5" fill="#364E6A" />
<rect x="88" y="34" width="3" height="16" fill="#88FF87" />
<rect x="91" y="34" width="1" height="1" fill="#734B5E" />
<rect x="91" y="35" width="1" height="17" fill="#88FF87" />
<rect x="93" y="35" width="1" height="18" fill="#88FF87" />
<rect x="92" y="36" width="1" height="17" fill="#88FF87" />
<rect x="4" y="39" width="57" height="1" fill="#364E6A" />
<rect x="61" y="39" width="10" height="4" fill="#CD682C" />
<rect x="71" y="39" width="12" height="1" fill="#364E6A" />
<rect x="84" y="39" width="1" height="7" fill="#88FF87" />
<rect x="4" y="40" width="2" height="9" fill="#88FF87" />
<rect x="6" y="40" width="49" height="1" fill="#364E6A" />
<rect x="55" y="40" width="6" height="2" fill="#CD682C" />
<rect x="71" y="40" width="5" height="7" fill="#CD682C" />
<rect x="76" y="40" width="7" height="1" fill="#364E6A" />
<rect x="6" y="41" width="5" height="8" fill="#88FF87" />
<rect x="11" y="41" width="43" height="1" fill="#364E6A" />
<rect x="54" y="41" width="1" height="14" fill="#CD682C" />
<rect x="76" y="41" width="2" height="20" fill="#CD682C" />
<rect x="78" y="41" width="5" height="1" fill="#364E6A" />
<rect x="11" y="42" width="4" height="7" fill="#88FF87" />
<rect x="15" y="42" width="36" height="1" fill="#364E6A" />
<rect x="51" y="42" width="3" height="3" fill="#CD682C" />
<rect x="55" y="42" width="3" height="21" fill="#CD682C" />
<rect x="58" y="42" width="2" height="1" fill="#E29B31" />
<rect x="60" y="42" width="1" height="1" fill="#CD682C" />
<rect x="78" y="42" width="2" height="20" fill="#CD682C" />
<rect x="80" y="42" width="3" height="1" fill="#364E6A" />
<rect x="15" y="43" width="5" height="12" fill="#88FF87" />
<rect x="20" y="43" width="29" height="1" fill="#364E6A" />
<rect x="49" y="43" width="2" height="1" fill="#CD682C" />
<rect x="58" y="43" width="2" height="21" fill="#CD682C" />
<rect x="60" y="43" width="2" height="1" fill="#E29B31" />
<rect x="62" y="43" width="9" height="2" fill="#CD682C" />
<rect x="80" y="43" width="1" height="29" fill="#CD682C" />
<rect x="81" y="43" width="2" height="1" fill="#364E6A" />
<rect x="20" y="44" width="5" height="9" fill="#88FF87" />
<rect x="25" y="44" width="22" height="1" fill="#364E6A" />
<rect x="47" y="44" width="1" height="7" fill="#CD682C" />
<rect x="48" y="44" width="3" height="1" fill="#E29B31" />
<rect x="60" y="44" width="2" height="20" fill="#CD682C" />
<rect x="81" y="44" width="1" height="28" fill="#CD682C" />
<rect x="82" y="44" width="1" height="1" fill="#364E6A" />
<rect x="25" y="45" width="4" height="7" fill="#88FF87" />
<rect x="29" y="45" width="18" height="1" fill="#364E6A" />
<rect x="48" y="45" width="2" height="7" fill="#CD682C" />
<rect x="50" y="45" width="2" height="1" fill="#E29B31" />
<rect x="52" y="45" width="2" height="9" fill="#CD682C" />
<rect x="62" y="45" width="6" height="5" fill="#CD682C" />
<rect x="68" y="45" width="2" height="1" fill="#E29B31" />
<rect x="70" y="45" width="1" height="1" fill="#CD682C" />
<rect x="82" y="45" width="2" height="27" fill="#CD682C" />
<rect x="29" y="46" width="5" height="6" fill="#88FF87" />
<rect x="34" y="46" width="11" height="1" fill="#364E6A" />
<rect x="45" y="46" width="2" height="5" fill="#CD682C" />
<rect x="50" y="46" width="2" height="6" fill="#CD682C" />
<rect x="68" y="46" width="1" height="6" fill="#CD682C" />
<rect x="69" y="46" width="2" height="1" fill="#E29B31" />
<rect x="84" y="46" width="1" height="16" fill="#CD682C" />
<rect x="34" y="47" width="5" height="5" fill="#88FF87" />
<rect x="39" y="47" width="5" height="1" fill="#364E6A" />
<rect x="44" y="47" width="1" height="12" fill="#CD682C" />
<rect x="69" y="47" width="2" height="5" fill="#CD682C" />
<rect x="71" y="47" width="3" height="1" fill="#E29B31" />
<rect x="74" y="47" width="2" height="14" fill="#CD682C" />
<rect x="85" y="47" width="1" height="15" fill="#CD682C" />
<rect x="86" y="47" width="1" height="1" fill="#88FF87" />
<rect x="39" y="48" width="4" height="2" fill="#88FF87" />
<rect x="43" y="48" width="1" height="1" fill="#364E6A" />
<rect x="71" y="48" width="3" height="5" fill="#CD682C" />
<rect x="86" y="48" width="1" height="14" fill="#CD682C" />
<rect x="4" y="49" width="1" height="1" fill="#E6FCFC" />
<rect x="5" y="49" width="3" height="1" fill="#88FF87" />
<rect x="8" y="49" width="4" height="2" fill="#734B5E" />
<rect x="12" y="49" width="3" height="4" fill="#88FF87" />
<rect x="43" y="49" width="1" height="9" fill="#CD682C" />
<rect x="87" y="49" width="1" height="13" fill="#CD682C" />
<rect x="4" y="50" width="2" height="21" fill="#88FF87" />
<rect x="6" y="50" width="1" height="1" fill="#E6FCFC" />
<rect x="7" y="50" width="1" height="12" fill="#88FF87" />
<rect x="39" y="50" width="3" height="1" fill="#88FF87" />
<rect x="42" y="50" width="1" height="8" fill="#CD682C" />
<rect x="62" y="50" width="2" height="15" fill="#CD682C" />
<rect x="64" y="50" width="1" height="2" fill="#E29B31" />
<rect x="65" y="50" width="3" height="1" fill="#CD682C" />
<rect x="88" y="50" width="2" height="12" fill="#CD682C" />
<rect x="90" y="50" width="1" height="1" fill="#88FF87" />
<rect x="6" y="51" width="1" height="21" fill="#88FF87" />
<rect x="8" y="51" width="4" height="1" fill="#88FF87" />
<rect x="39" y="51" width="2" height="1" fill="#88FF87" />
<rect x="41" y="51" width="1" height="7" fill="#CD682C" />
<rect x="45" y="51" width="1" height="8" fill="#CD682C" />
<rect x="46" y="51" width="2" height="1" fill="#E29B31" />
<rect x="65" y="51" width="3" height="1" fill="#E29B31" />
<rect x="90" y="51" width="1" height="11" fill="#CD682C" />
<rect x="8" y="52" width="2" height="1" fill="#E6FCFC" />
<rect x="10" y="52" width="2" height="1" fill="#88FF87" />
<rect x="25" y="52" width="5" height="4" fill="#E6FCFC" />
<rect x="30" y="52" width="7" height="1" fill="#88FF87" />
<rect x="37" y="52" width="4" height="4" fill="#CD682C" />
<rect x="46" y="52" width="2" height="7" fill="#CD682C" />
<rect x="48" y="52" width="3" height="1" fill="#E29B31" />
<rect x="51" y="52" width="1" height="1" fill="#CD682C" />
<rect x="64" y="52" width="3" height="14" fill="#CD682C" />
<rect x="67" y="52" width="4" height="1" fill="#E29B31" />
<rect x="91" y="52" width="1" height="11" fill="#CD682C" />
<rect x="105" y="52" width="4" height="22" fill="#E6FCFC" />
<rect x="8" y="53" width="3" height="1" fill="#88FF87" />
<rect x="11" y="53" width="2" height="1" fill="#E6FCFC" />
<rect x="13" y="53" width="2" height="1" fill="#88FF87" />
<rect x="20" y="53" width="3" height="5" fill="#88FF87" />
<rect x="23" y="53" width="2" height="2" fill="#E6FCFC" />
<rect x="30" y="53" width="2" height="2" fill="#E6FCFC" />
<rect x="32" y="53" width="4" height="1" fill="#88FF87" />
<rect x="36" y="53" width="1" height="3" fill="#CD682C" />
<rect x="48" y="53" width="2" height="7" fill="#CD682C" />
<rect x="50" y="53" width="2" height="1" fill="#E29B31" />
<rect x="67" y="53" width="3" height="14" fill="#CD682C" />
<rect x="70" y="53" width="4" height="1" fill="#E29B31" />
<rect x="92" y="53" width="2" height="10" fill="#CD682C" />
<rect x="101" y="53" width="3" height="1" fill="#88FF87" />
<rect x="104" y="53" width="1" height="20" fill="#E6FCFC" />
<rect x="109" y="53" width="1" height="20" fill="#E6FCFC" />
<rect x="8" y="54" width="2" height="2" fill="#88FF87" />
<rect x="10" y="54" width="1" height="1" fill="#E6FCFC" />
<rect x="11" y="54" width="2" height="2" fill="#88FF87" />
<rect x="13" y="54" width="1" height="1" fill="#E6FCFC" />
<rect x="14" y="54" width="1" height="3" fill="#88FF87" />
<rect x="32" y="54" width="3" height="6" fill="#88FF87" />
<rect x="35" y="54" width="1" height="1" fill="#CD682C" />
<rect x="50" y="54" width="2" height="7" fill="#CD682C" />
<rect x="52" y="54" width="1" height="1" fill="#E29B31" />
<rect x="53" y="54" width="1" height="1" fill="#CD682C" />
<rect x="70" y="54" width="3" height="14" fill="#CD682C" />
<rect x="73" y="54" width="1" height="1" fill="#E29B31" />
<rect x="94" y="54" width="1" height="9" fill="#CD682C" />
<rect x="101" y="54" width="2" height="4" fill="#88FF87" />
<rect x="103" y="54" width="1" height="3" fill="#E6FCFC" />
<rect x="110" y="54" width="1" height="3" fill="#E6FCFC" />
<rect x="10" y="55" width="1" height="1" fill="#88FF87" />
<rect x="13" y="55" width="1" height="2" fill="#88FF87" />
<rect x="15" y="55" width="1" height="1" fill="#E6FCFC" />
<rect x="16" y="55" width="4" height="3" fill="#88FF87" />
<rect x="23" y="55" width="2" height="4" fill="#88FF87" />
<rect x="30" y="55" width="2" height="8" fill="#88FF87" />
<rect x="35" y="55" width="1" height="12" fill="#88FF87" />
<rect x="52" y="55" width="1" height="7" fill="#CD682C" />
<rect x="53" y="55" width="2" height="1" fill="#E29B31" />
<rect x="73" y="55" width="1" height="14" fill="#CD682C" />
<rect x="95" y="55" width="1" height="9" fill="#CD682C" />
<rect x="96" y="55" width="3" height="1" fill="#88FF87" />
<rect x="8" y="56" width="1" height="6" fill="#88FF87" />
<rect x="9" y="56" width="3" height="1" fill="#E6FCFC" />
<rect x="12" y="56" width="1" height="1" fill="#88FF87" />
<rect x="15" y="56" width="1" height="2" fill="#88FF87" />
<rect x="25" y="56" width="5" height="4" fill="#88FF87" />
<rect x="36" y="56" width="2" height="12" fill="#88FF87" />
<rect x="38" y="56" width="3" height="1" fill="#CD682C" />
<rect x="53" y="56" width="2" height="6" fill="#CD682C" />
<rect x="96" y="56" width="1" height="9" fill="#CD682C" />
<rect x="97" y="56" width="2" height="2" fill="#88FF87" />
<rect x="9" y="57" width="1" height="5" fill="#88FF87" />
<rect x="10" y="57" width="5" height="1" fill="#E6FCFC" />
<rect x="38" y="57" width="1" height="13" fill="#88FF87" />
<rect x="39" y="57" width="2" height="6" fill="#FFDF68" />
<rect x="103" y="57" width="1" height="2" fill="#88FF87" />
<rect x="110" y="57" width="1" height="2" fill="#364E6A" />
<rect x="10" y="58" width="1" height="4" fill="#88FF87" />
<rect x="11" y="58" width="6" height="1" fill="#E6FCFC" />
<rect x="17" y="58" width="1" height="1" fill="#88FF87" />
<rect x="18" y="58" width="3" height="1" fill="#E6FCFC" />
<rect x="21" y="58" width="2" height="1" fill="#88FF87" />
<rect x="41" y="58" width="3" height="5" fill="#FFDF68" />
<rect x="97" y="58" width="1" height="20" fill="#CD682C" />
<rect x="98" y="58" width="1" height="1" fill="#88FF87" />
<rect x="99" y="58" width="3" height="2" fill="#E6FCFC" />
<rect x="102" y="58" width="1" height="1" fill="#88FF87" />
<rect x="11" y="59" width="2" height="4" fill="#88FF87" />
<rect x="13" y="59" width="5" height="1" fill="#E6FCFC" />
<rect x="18" y="59" width="2" height="1" fill="#88FF87" />
<rect x="20" y="59" width="4" height="1" fill="#E6FCFC" />
<rect x="24" y="59" width="1" height="2" fill="#88FF87" />
<rect x="44" y="59" width="3" height="6" fill="#FFDF68" />
<rect x="47" y="59" width="1" height="1" fill="#CD682C" />
<rect x="98" y="59" width="1" height="19" fill="#CD682C" />
<rect x="102" y="59" width="2" height="13" fill="#E6FCFC" />
<rect x="110" y="59" width="1" height="9" fill="#E6FCFC" />
<rect x="13" y="60" width="3" height="1" fill="#88FF87" />
<rect x="16" y="60" width="4" height="1" fill="#E6FCFC" />
<rect x="20" y="60" width="2" height="1" fill="#88FF87" />
<rect x="22" y="60" width="2" height="1" fill="#E6FCFC" />
<rect x="25" y="60" width="2" height="3" fill="#E6FCFC" />
<rect x="27" y="60" width="3" height="1" fill="#88FF87" />
<rect x="32" y="60" width="1" height="1" fill="#E6FCFC" />
<rect x="33" y="60" width="2" height="6" fill="#88FF87" />
<rect x="47" y="60" width="2" height="19" fill="#FFDF68" />
<rect x="49" y="60" width="1" height="1" fill="#CD682C" />
<rect x="99" y="60" width="1" height="19" fill="#CD682C" />
<rect x="100" y="60" width="2" height="2" fill="#E6FCFC" />
<rect x="13" y="61" width="2" height="3" fill="#88FF87" />
<rect x="15" y="61" width="1" height="1" fill="#E6FCFC" />
<rect x="16" y="61" width="2" height="1" fill="#88FF87" />
<rect x="18" y="61" width="4" height="1" fill="#E6FCFC" />
<rect x="22" y="61" width="1" height="1" fill="#88FF87" />
<rect x="23" y="61" width="2" height="1" fill="#E6FCFC" />
<rect x="27" y="61" width="2" height="3" fill="#E6FCFC" />
<rect x="29" y="61" width="1" height="1" fill="#88FF87" />
<rect x="32" y="61" width="1" height="4" fill="#88FF87" />
<rect x="49" y="61" width="3" height="20" fill="#FFDF68" />
<rect x="74" y="61" width="3" height="1" fill="#E29B31" />
<rect x="77" y="61" width="1" height="1" fill="#CD682C" />
<rect x="111" y="61" width="1" height="5" fill="#E6FCFC" />
<rect x="112" y="61" width="12" height="2" fill="#364E6A" />
<rect x="7" y="62" width="2" height="1" fill="#E6FCFC" />
<rect x="9" y="62" width="2" height="1" fill="#734B5E" />
<rect x="15" y="62" width="1" height="3" fill="#88FF87" />
<rect x="16" y="62" width="2" height="1" fill="#E6FCFC" />
<rect x="18" y="62" width="2" height="1" fill="#88FF87" />
<rect x="20" y="62" width="3" height="1" fill="#E6FCFC" />
<rect x="23" y="62" width="2" height="1" fill="#88FF87" />
<rect x="29" y="62" width="1" height="3" fill="#E6FCFC" />
<rect x="52" y="62" width="3" height="18" fill="#FFDF68" />
<rect x="74" y="62" width="3" height="8" fill="#CD682C" />
<rect x="77" y="62" width="2" height="1" fill="#E29B31" />
<rect x="79" y="62" width="1" height="1" fill="#CD682C" />
<rect x="84" y="62" width="7" height="1" fill="#E29B31" />
<rect x="100" y="62" width="1" height="17" fill="#CD682C" />
<rect x="101" y="62" width="1" height="3" fill="#E6FCFC" />
<rect x="7" y="63" width="2" height="9" fill="#88FF87" />
<rect x="9" y="63" width="4" height="1" fill="#E6FCFC" />
<rect x="16" y="63" width="1" height="2" fill="#88FF87" />
<rect x="17" y="63" width="3" height="1" fill="#E6FCFC" />
<rect x="20" y="63" width="2" height="1" fill="#88FF87" />
<rect x="22" y="63" width="3" height="1" fill="#E6FCFC" />
<rect x="25" y="63" width="2" height="1" fill="#88FF87" />
<rect x="30" y="63" width="1" height="5" fill="#E6FCFC" />
<rect x="31" y="63" width="1" height="1" fill="#88FF87" />
<rect x="39" y="63" width="1" height="6" fill="#FFDF68" />
<rect x="40" y="63" width="2" height="1" fill="#F2BA4D" />
<rect x="42" y="63" width="2" height="1" fill="#FFDF68" />
<rect x="55" y="63" width="3" height="8" fill="#FFDF68" />
<rect x="77" y="63" width="2" height="8" fill="#CD682C" />
<rect x="79" y="63" width="1" height="1" fill="#E29B31" />
<rect x="84" y="63" width="5" height="10" fill="#CD682C" />
<rect x="89" y="63" width="6" height="1" fill="#E29B31" />
<rect x="112" y="63" width="1" height="21" fill="#88FF87" />
<rect x="113" y="63" width="11" height="1" fill="#364E6A" />
<rect x="9" y="64" width="1" height="9" fill="#88FF87" />
<rect x="10" y="64" width="5" height="1" fill="#E6FCFC" />
<rect x="17" y="64" width="3" height="3" fill="#88FF87" />
<rect x="20" y="64" width="2" height="1" fill="#E6FCFC" />
<rect x="22" y="64" width="2" height="1" fill="#88FF87" />
<rect x="24" y="64" width="3" height="1" fill="#E6FCFC" />
<rect x="27" y="64" width="1" height="1" fill="#88FF87" />
<rect x="28" y="64" width="1" height="1" fill="#E6FCFC" />
<rect x="31" y="64" width="1" height="5" fill="#E6FCFC" />
<rect x="40" y="64" width="2" height="7" fill="#FFDF68" />
<rect x="42" y="64" width="2" height="1" fill="#F2BA4D" />
<rect x="58" y="64" width="3" height="9" fill="#FFDF68" />
<rect x="61" y="64" width="1" height="1" fill="#CD682C" />
<rect x="79" y="64" width="1" height="7" fill="#CD682C" />
<rect x="89" y="64" width="2" height="11" fill="#CD682C" />
<rect x="91" y="64" width="5" height="1" fill="#E29B31" />
<rect x="113" y="64" width="5" height="20" fill="#88FF87" />
<rect x="118" y="64" width="6" height="1" fill="#364E6A" />
<rect x="10" y="65" width="2" height="8" fill="#88FF87" />
<rect x="12" y="65" width="5" height="1" fill="#E6FCFC" />
<rect x="20" y="65" width="1" height="3" fill="#88FF87" />
<rect x="21" y="65" width="3" height="1" fill="#E6FCFC" />
<rect x="24" y="65" width="1" height="1" fill="#88FF87" />
<rect x="25" y="65" width="3" height="1" fill="#E6FCFC" />
<rect x="28" y="65" width="2" height="1" fill="#88FF87" />
<rect x="32" y="65" width="1" height="5" fill="#E6FCFC" />
<rect x="42" y="65" width="1" height="9" fill="#FFDF68" />
<rect x="43" y="65" width="2" height="1" fill="#F2BA4D" />
<rect x="45" y="65" width="2" height="1" fill="#FFDF68" />
<rect x="61" y="65" width="2" height="9" fill="#FFDF68" />
<rect x="63" y="65" width="1" height="1" fill="#CD682C" />
<rect x="91" y="65" width="2" height="11" fill="#CD682C" />
<rect x="93" y="65" width="4" height="1" fill="#E29B31" />
<rect x="101" y="65" width="1" height="4" fill="#CD682C" />
<rect x="118" y="65" width="5" height="38" fill="#88FF87" />
<rect x="123" y="65" width="1" height="1" fill="#364E6A" />
<rect x="12" y="66" width="2" height="5" fill="#88FF87" />
<rect x="14" y="66" width="3" height="1" fill="#E6FCFC" />
<rect x="21" y="66" width="2" height="2" fill="#88FF87" />
<rect x="23" y="66" width="2" height="1" fill="#E6FCFC" />
<rect x="25" y="66" width="2" height="1" fill="#88FF87" />
<rect x="27" y="66" width="3" height="1" fill="#E6FCFC" />
<rect x="33" y="66" width="2" height="4" fill="#E6FCFC" />
<rect x="43" y="66" width="1" height="9" fill="#FFDF68" />
<rect x="44" y="66" width="2" height="1" fill="#F2BA4D" />
<rect x="46" y="66" width="1" height="12" fill="#FFDF68" />
<rect x="63" y="66" width="3" height="19" fill="#FFDF68" />
<rect x="66" y="66" width="1" height="1" fill="#CD682C" />
<rect x="93" y="66" width="4" height="10" fill="#CD682C" />
<rect x="111" y="66" width="1" height="22" fill="#88FF87" />
<rect x="123" y="66" width="1" height="39" fill="#88FF87" />
<rect x="14" y="67" width="1" height="4" fill="#88FF87" />
<rect x="15" y="67" width="5" height="1" fill="#E6FCFC" />
<rect x="23" y="67" width="1" height="2" fill="#88FF87" />
<rect x="24" y="67" width="3" height="1" fill="#E6FCFC" />
<rect x="27" y="67" width="3" height="1" fill="#88FF87" />
<rect x="35" y="67" width="1" height="4" fill="#E6FCFC" />
<rect x="44" y="67" width="2" height="9" fill="#FFDF68" />
<rect x="66" y="67" width="3" height="19" fill="#FFDF68" />
<rect x="69" y="67" width="1" height="1" fill="#CD682C" />
<rect x="15" y="68" width="2" height="3" fill="#88FF87" />
<rect x="17" y="68" width="5" height="1" fill="#E6FCFC" />
<rect x="22" y="68" width="1" height="1" fill="#88FF87" />
<rect x="24" y="68" width="2" height="2" fill="#88FF87" />
<rect x="26" y="68" width="4" height="1" fill="#E6FCFC" />
<rect x="30" y="68" width="1" height="1" fill="#88FF87" />
<rect x="36" y="68" width="1" height="4" fill="#E6FCFC" />
<rect x="37" y="68" width="1" height="1" fill="#88FF87" />
<rect x="69" y="68" width="3" height="19" fill="#FFDF68" />
<rect x="72" y="68" width="1" height="1" fill="#CD682C" />
<rect x="110" y="68" width="1" height="2" fill="#88FF87" />
<rect x="17" y="69" width="2" height="2" fill="#88FF87" />
<rect x="19" y="69" width="2" height="2" fill="#E6FCFC" />
<rect x="21" y="69" width="1" height="1" fill="#88FF87" />
<rect x="22" y="69" width="2" height="1" fill="#E6FCFC" />
<rect x="26" y="69" width="1" height="1" fill="#88FF87" />
<rect x="27" y="69" width="1" height="1" fill="#E6FCFC" />
<rect x="28" y="69" width="1" height="4" fill="#88FF87" />
<rect x="29" y="69" width="2" height="1" fill="#E6FCFC" />
<rect x="31" y="69" width="1" height="1" fill="#88FF87" />
<rect x="37" y="69" width="1" height="4" fill="#E6FCFC" />
<rect x="39" y="69" width="1" height="2" fill="#88FF87" />
<rect x="72" y="69" width="2" height="7" fill="#FFDF68" />
<rect x="101" y="69" width="1" height="1" fill="#E6FCFC" />
<rect x="21" y="70" width="2" height="2" fill="#E6FCFC" />
<rect x="23" y="70" width="1" height="1" fill="#88FF87" />
<rect x="24" y="70" width="1" height="3" fill="#E6FCFC" />
<rect x="25" y="70" width="1" height="1" fill="#88FF87" />
<rect x="26" y="70" width="1" height="1" fill="#E6FCFC" />
<rect x="27" y="70" width="1" height="2" fill="#88FF87" />
<rect x="29" y="70" width="1" height="2" fill="#88FF87" />
<rect x="30" y="70" width="2" height="1" fill="#E6FCFC" />
<rect x="32" y="70" width="2" height="1" fill="#88FF87" />
<rect x="34" y="70" width="1" height="1" fill="#E6FCFC" />
<rect x="38" y="70" width="1" height="4" fill="#E6FCFC" />
<rect x="74" y="70" width="3" height="7" fill="#FFDF68" />
<rect x="101" y="70" width="1" height="2" fill="#CD682C" />
<rect x="110" y="70" width="1" height="2" fill="#E6FCFC" />
<rect x="4" y="71" width="1" height="17" fill="#7B29C1" />
<rect x="5" y="71" width="1" height="1" fill="#88FF87" />
<rect x="12" y="71" width="6" height="1" fill="#E6FCFC" />
<rect x="18" y="71" width="3" height="1" fill="#88FF87" />
<rect x="23" y="71" width="1" height="1" fill="#E6FCFC" />
<rect x="25" y="71" width="1" height="2" fill="#E6FCFC" />
<rect x="26" y="71" width="1" height="1" fill="#88FF87" />
<rect x="30" y="71" width="1" height="2" fill="#88FF87" />
<rect x="31" y="71" width="3" height="1" fill="#E6FCFC" />
<rect x="34" y="71" width="2" height="1" fill="#88FF87" />
<rect x="39" y="71" width="1" height="9" fill="#E6FCFC" />
<rect x="40" y="71" width="1" height="1" fill="#88FF87" />
<rect x="41" y="71" width="1" height="1" fill="#FFDF68" />
<rect x="55" y="71" width="1" height="11" fill="#FFDF68" />
<rect x="56" y="71" width="1" height="2" fill="#F2BA4D" />
<rect x="57" y="71" width="1" height="1" fill="#FFDF68" />
<rect x="77" y="71" width="3" height="7" fill="#FFDF68" />
<rect x="5" y="72" width="4" height="12" fill="#7B29C1" />
<rect x="12" y="72" width="1" height="1" fill="#88FF87" />
<rect x="13" y="72" width="3" height="2" fill="#E6FCFC" />
<rect x="16" y="72" width="2" height="1" fill="#88FF87" />
<rect x="18" y="72" width="3" height="3" fill="#E6FCFC" />
<rect x="21" y="72" width="3" height="1" fill="#88FF87" />
<rect x="26" y="72" width="2" height="1" fill="#E6FCFC" />
<rect x="29" y="72" width="1" height="1" fill="#E6FCFC" />
<rect x="31" y="72" width="1" height="1" fill="#88FF87" />
<rect x="32" y="72" width="4" height="1" fill="#E6FCFC" />
<rect x="36" y="72" width="1" height="1" fill="#88FF87" />
<rect x="40" y="72" width="1" height="8" fill="#E6FCFC" />
<rect x="41" y="72" width="1" height="2" fill="#88FF87" />
<rect x="57" y="72" width="1" height="1" fill="#F2BA4D" />
<rect x="80" y="72" width="3" height="17" fill="#FFDF68" />
<rect x="83" y="72" width="1" height="1" fill="#CD682C" />
<rect x="101" y="72" width="1" height="1" fill="#E6FCFC" />
<rect x="102" y="72" width="2" height="2" fill="#88FF87" />
<rect x="110" y="72" width="1" height="16" fill="#88FF87" />
<rect x="9" y="73" width="3" height="1" fill="#7B29C1" />
<rect x="12" y="73" width="1" height="1" fill="#E6FCFC" />
<rect x="16" y="73" width="2" height="1" fill="#E6FCFC" />
<rect x="21" y="73" width="2" height="4" fill="#E6FCFC" />
<rect x="23" y="73" width="4" height="1" fill="#88FF87" />
<rect x="27" y="73" width="2" height="1" fill="#E6FCFC" />
<rect x="29" y="73" width="1" height="2" fill="#88FF87" />
<rect x="30" y="73" width="2" height="1" fill="#E6FCFC" />
<rect x="32" y="73" width="1" height="1" fill="#88FF87" />
<rect x="33" y="73" width="4" height="4" fill="#E6FCFC" />
<rect x="37" y="73" width="1" height="1" fill="#88FF87" />
<rect x="56" y="73" width="2" height="9" fill="#FFDF68" />
<rect x="58" y="73" width="1" height="1" fill="#F2BA4D" />
<rect x="59" y="73" width="2" height="1" fill="#FFDF68" />
<rect x="83" y="73" width="2" height="16" fill="#FFDF68" />
<rect x="85" y="73" width="4" height="1" fill="#CD682C" />
<rect x="101" y="73" width="1" height="6" fill="#CD682C" />
<rect x="104" y="73" width="1" height="4" fill="#88FF87" />
<rect x="109" y="73" width="1" height="15" fill="#88FF87" />
<rect x="9" y="74" width="3" height="1" fill="#E6FCFC" />
<rect x="12" y="74" width="3" height="1" fill="#7B29C1" />
<rect x="15" y="74" width="1" height="1" fill="#E6FCFC" />
<rect x="16" y="74" width="2" height="1" fill="#88FF87" />
<rect x="23" y="74" width="4" height="4" fill="#E6FCFC" />
<rect x="27" y="74" width="2" height="1" fill="#88FF87" />
<rect x="30" y="74" width="2" height="1" fill="#88FF87" />
<rect x="32" y="74" width="1" height="1" fill="#E6FCFC" />
<rect x="37" y="74" width="1" height="5" fill="#E6FCFC" />
<rect x="38" y="74" width="1" height="1" fill="#88FF87" />
<rect x="41" y="74" width="1" height="1" fill="#E6FCFC" />
<rect x="42" y="74" width="1" height="1" fill="#88FF87" />
<rect x="58" y="74" width="1" height="9" fill="#FFDF68" />
<rect x="59" y="74" width="3" height="1" fill="#F2BA4D" />
<rect x="62" y="74" width="1" height="10" fill="#FFDF68" />
<rect x="85" y="74" width="3" height="13" fill="#FFDF68" />
<rect x="88" y="74" width="1" height="1" fill="#CD682C" />
<rect x="102" y="74" width="1" height="6" fill="#CD682C" />
<rect x="103" y="74" width="1" height="2" fill="#88FF87" />
<rect x="105" y="74" width="4" height="14" fill="#88FF87" />
<rect x="9" y="75" width="1" height="1" fill="#E6FCFC" />
<rect x="10" y="75" width="1" height="8" fill="#7B29C1" />
<rect x="11" y="75" width="2" height="1" fill="#E6FCFC" />
<rect x="13" y="75" width="4" height="1" fill="#7B29C1" />
<rect x="17" y="75" width="1" height="1" fill="#E6FCFC" />
<rect x="18" y="75" width="1" height="3" fill="#7B29C1" />
<rect x="19" y="75" width="1" height="1" fill="#88FF87" />
<rect x="20" y="75" width="1" height="1" fill="#E6FCFC" />
<rect x="27" y="75" width="3" height="4" fill="#E6FCFC" />
<rect x="30" y="75" width="1" height="1" fill="#88FF87" />
<rect x="31" y="75" width="1" height="1" fill="#E6FCFC" />
<rect x="32" y="75" width="1" height="3" fill="#88FF87" />
<rect x="38" y="75" width="1" height="4" fill="#E6FCFC" />
<rect x="41" y="75" width="1" height="1" fill="#88FF87" />
<rect x="42" y="75" width="2" height="6" fill="#E6FCFC" />
<rect x="59" y="75" width="3" height="9" fill="#FFDF68" />
<rect x="88" y="75" width="3" height="11" fill="#FFDF68" />
<rect x="9" y="76" width="1" height="7" fill="#7B29C1" />
<rect x="11" y="76" width="4" height="8" fill="#7B29C1" />
<rect x="15" y="76" width="1" height="1" fill="#E6FCFC" />
<rect x="16" y="76" width="2" height="1" fill="#7B29C1" />
<rect x="19" y="76" width="2" height="2" fill="#7B29C1" />
<rect x="30" y="76" width="1" height="4" fill="#E6FCFC" />
<rect x="31" y="76" width="1" height="1" fill="#88FF87" />
<rect x="41" y="76" width="1" height="5" fill="#E6FCFC" />
<rect x="44" y="76" width="1" height="15" fill="#E6FCFC" />
<rect x="45" y="76" width="1" height="1" fill="#FFDF68" />
<rect x="72" y="76" width="1" height="14" fill="#FFDF68" />
<rect x="73" y="76" width="1" height="2" fill="#F2BA4D" />
<rect x="91" y="76" width="3" height="9" fill="#FFDF68" />
<rect x="94" y="76" width="3" height="1" fill="#CD682C" />
<rect x="103" y="76" width="1" height="4" fill="#CD682C" />
<rect x="15" y="77" width="2" height="1" fill="#7B29C1" />
<rect x="17" y="77" width="1" height="2" fill="#E6FCFC" />
<rect x="21" y="77" width="2" height="2" fill="#7B29C1" />
<rect x="31" y="77" width="1" height="1" fill="#E6FCFC" />
<rect x="33" y="77" width="2" height="1" fill="#88FF87" />
<rect x="35" y="77" width="2" height="1" fill="#E6FCFC" />
<rect x="45" y="77" width="1" height="14" fill="#E6FCFC" />
<rect x="74" y="77" width="1" height="1" fill="#F2BA4D" />
<rect x="75" y="77" width="2" height="1" fill="#FFDF68" />
<rect x="94" y="77" width="3" height="6" fill="#FFDF68" />
<rect x="104" y="77" width="1" height="1" fill="#CD682C" />
<rect x="15" y="78" width="1" height="5" fill="#7B29C1" />
<rect x="16" y="78" width="1" height="1" fill="#E6FCFC" />
<rect x="18" y="78" width="2" height="1" fill="#E6FCFC" />
<rect x="20" y="78" width="1" height="8" fill="#7B29C1" />
<rect x="23" y="78" width="4" height="3" fill="#7B29C1" />
<rect x="31" y="78" width="1" height="1" fill="#88FF87" />
<rect x="32" y="78" width="3" height="3" fill="#E6FCFC" />
<rect x="35" y="78" width="2" height="1" fill="#88FF87" />
<rect x="46" y="78" width="1" height="13" fill="#E6FCFC" />
<rect x="73" y="78" width="2" height="12" fill="#FFDF68" />
<rect x="75" y="78" width="3" height="1" fill="#F2BA4D" />
<rect x="78" y="78" width="2" height="1" fill="#FFDF68" />
<rect x="97" y="78" width="2" height="2" fill="#FFDF68" />
<rect x="104" y="78" width="1" height="21" fill="#88FF87" />
<rect x="16" y="79" width="4" height="4" fill="#7B29C1" />
<rect x="21" y="79" width="2" height="1" fill="#E6FCFC" />
<rect x="27" y="79" width="3" height="2" fill="#7B29C1" />
<rect x="31" y="79" width="1" height="1" fill="#E6FCFC" />
<rect x="35" y="79" width="2" height="2" fill="#E6FCFC" />
<rect x="37" y="79" width="2" height="1" fill="#88FF87" />
<rect x="47" y="79" width="1" height="12" fill="#E6FCFC" />
<rect x="48" y="79" width="1" height="1" fill="#FFDF68" />
<rect x="75" y="79" width="2" height="11" fill="#FFDF68" />
<rect x="77" y="79" width="2" height="1" fill="#F2BA4D" />
<rect x="79" y="79" width="1" height="11" fill="#FFDF68" />
<rect x="99" y="79" width="1" height="1" fill="#FFDF68" />
<rect x="100" y="79" width="2" height="19" fill="#88FF87" />
<rect x="21" y="80" width="2" height="7" fill="#7B29C1" />
<rect x="30" y="80" width="2" height="2" fill="#7B29C1" />
<rect x="37" y="80" width="2" height="3" fill="#E6FCFC" />
<rect x="39" y="80" width="2" height="1" fill="#88FF87" />
<rect x="48" y="80" width="1" height="11" fill="#E6FCFC" />
<rect x="52" y="80" width="1" height="3" fill="#FFDF68" />
<rect x="53" y="80" width="1" height="1" fill="#F2BA4D" />
<rect x="54" y="80" width="1" height="1" fill="#FFDF68" />
<rect x="77" y="80" width="2" height="10" fill="#FFDF68" />
<rect x="97" y="80" width="1" height="3" fill="#FFDF68" />
<rect x="98" y="80" width="2" height="18" fill="#88FF87" />
<rect x="102" y="80" width="2" height="19" fill="#88FF87" />
<rect x="23" y="81" width="2" height="6" fill="#7B29C1" />
<rect x="25" y="81" width="3" height="1" fill="#E6FCFC" />
<rect x="28" y="81" width="2" height="1" fill="#7B29C1" />
<rect x="32" y="81" width="4" height="1" fill="#7B29C1" />
<rect x="36" y="81" width="1" height="1" fill="#E6FCFC" />
<rect x="39" y="81" width="2" height="3" fill="#E6FCFC" />
<rect x="41" y="81" width="2" height="1" fill="#88FF87" />
<rect x="43" y="81" width="1" height="1" fill="#E6FCFC" />
<rect x="49" y="81" width="2" height="11" fill="#E6FCFC" />
<rect x="51" y="81" width="1" height="1" fill="#FFDF68" />
<rect x="53" y="81" width="1" height="3" fill="#FFDF68" />
<rect x="54" y="81" width="1" height="1" fill="#F2BA4D" />
<rect x="25" y="82" width="1" height="6" fill="#7B29C1" />
<rect x="26" y="82" width="1" height="1" fill="#E6FCFC" />
<rect x="27" y="82" width="1" height="1" fill="#7B29C1" />
<rect x="28" y="82" width="3" height="2" fill="#E6FCFC" />
<rect x="31" y="82" width="3" height="1" fill="#7B29C1" />
<rect x="34" y="82" width="2" height="3" fill="#E6FCFC" />
<rect x="36" y="82" width="1" height="1" fill="#7B29C1" />
<rect x="41" y="82" width="2" height="9" fill="#E6FCFC" />
<rect x="43" y="82" width="1" height="1" fill="#7B29C1" />
<rect x="51" y="82" width="1" height="10" fill="#E6FCFC" />
<rect x="54" y="82" width="1" height="3" fill="#FFDF68" />
<rect x="55" y="82" width="3" height="1" fill="#F2BA4D" />
<rect x="9" y="83" width="2" height="2" fill="#E6FCFC" />
<rect x="15" y="83" width="3" height="1" fill="#E6FCFC" />
<rect x="18" y="83" width="2" height="2" fill="#7B29C1" />
<rect x="26" y="83" width="1" height="3" fill="#7B29C1" />
<rect x="27" y="83" width="1" height="1" fill="#E6FCFC" />
<rect x="31" y="83" width="3" height="1" fill="#E6FCFC" />
<rect x="36" y="83" width="1" height="3" fill="#E6FCFC" />
<rect x="37" y="83" width="1" height="1" fill="#7B29C1" />
<rect x="38" y="83" width="1" height="1" fill="#E6FCFC" />
<rect x="43" y="83" width="1" height="8" fill="#E6FCFC" />
<rect x="52" y="83" width="1" height="9" fill="#E6FCFC" />
<rect x="55" y="83" width="3" height="2" fill="#FFDF68" />
<rect x="58" y="83" width="1" height="1" fill="#F2BA4D" />
<rect x="94" y="83" width="2" height="1" fill="#FFDF68" />
<rect x="96" y="83" width="2" height="14" fill="#88FF87" />
<rect x="5" y="84" width="3" height="2" fill="#E6FCFC" />
<rect x="8" y="84" width="1" height="1" fill="#7B29C1" />
<rect x="11" y="84" width="4" height="2" fill="#E6FCFC" />
<rect x="15" y="84" width="3" height="1" fill="#7B29C1" />
<rect x="27" y="84" width="6" height="1" fill="#7B29C1" />
<rect x="33" y="84" width="1" height="1" fill="#E6FCFC" />
<rect x="37" y="84" width="1" height="2" fill="#E6FCFC" />
<rect x="38" y="84" width="2" height="1" fill="#7B29C1" />
<rect x="40" y="84" width="1" height="7" fill="#E6FCFC" />
<rect x="53" y="84" width="1" height="8" fill="#E6FCFC" />
<rect x="58" y="84" width="1" height="3" fill="#FFDF68" />
<rect x="59" y="84" width="4" height="1" fill="#F2BA4D" />
<rect x="94" y="84" width="1" height="1" fill="#FFDF68" />
<rect x="95" y="84" width="1" height="13" fill="#88FF87" />
<rect x="112" y="84" width="5" height="2" fill="#E6FCFC" />
<rect x="117" y="84" width="1" height="19" fill="#88FF87" />
<rect x="8" y="85" width="1" height="2" fill="#E6FCFC" />
<rect x="9" y="85" width="2" height="1" fill="#7B29C1" />
<rect x="15" y="85" width="4" height="2" fill="#E6FCFC" />
<rect x="19" y="85" width="1" height="1" fill="#7B29C1" />
<rect x="27" y="85" width="6" height="3" fill="#E6FCFC" />
<rect x="33" y="85" width="3" height="1" fill="#7B29C1" />
<rect x="38" y="85" width="1" height="2" fill="#7B29C1" />
<rect x="39" y="85" width="1" height="6" fill="#E6FCFC" />
<rect x="54" y="85" width="2" height="7" fill="#E6FCFC" />
<rect x="56" y="85" width="2" height="1" fill="#FFDF68" />
<rect x="59" y="85" width="4" height="2" fill="#FFDF68" />
<rect x="63" y="85" width="2" height="1" fill="#F2BA4D" />
<rect x="65" y="85" width="1" height="1" fill="#FFDF68" />
<rect x="91" y="85" width="2" height="1" fill="#FFDF68" />
<rect x="93" y="85" width="2" height="11" fill="#88FF87" />
<rect x="5" y="86" width="2" height="1" fill="#7B29C1" />
<rect x="7" y="86" width="1" height="1" fill="#E6FCFC" />
<rect x="9" y="86" width="2" height="1" fill="#E6FCFC" />
<rect x="11" y="86" width="3" height="1" fill="#7B29C1" />
<rect x="14" y="86" width="1" height="1" fill="#E6FCFC" />
<rect x="19" y="86" width="2" height="2" fill="#E6FCFC" />
<rect x="26" y="86" width="1" height="1" fill="#E6FCFC" />
<rect x="33" y="86" width="3" height="5" fill="#E6FCFC" />
<rect x="36" y="86" width="2" height="1" fill="#7B29C1" />
<rect x="56" y="86" width="2" height="6" fill="#E6FCFC" />
<rect x="63" y="86" width="2" height="3" fill="#FFDF68" />
<rect x="65" y="86" width="3" height="1" fill="#F2BA4D" />
<rect x="68" y="86" width="1" height="1" fill="#FFDF68" />
<rect x="88" y="86" width="2" height="1" fill="#FFDF68" />
<rect x="90" y="86" width="3" height="9" fill="#88FF87" />
<rect x="112" y="86" width="5" height="2" fill="#88FF87" />
<rect x="5" y="87" width="2" height="3" fill="#E6FCFC" />
<rect x="7" y="87" width="2" height="1" fill="#7B29C1" />
<rect x="9" y="87" width="1" height="2" fill="#E6FCFC" />
<rect x="10" y="87" width="1" height="1" fill="#7B29C1" />
<rect x="11" y="87" width="2" height="2" fill="#E6FCFC" />
<rect x="13" y="87" width="3" height="1" fill="#7B29C1" />
<rect x="16" y="87" width="3" height="1" fill="#E6FCFC" />
<rect x="21" y="87" width="4" height="2" fill="#E6FCFC" />
<rect x="26" y="87" width="1" height="1" fill="#7B29C1" />
<rect x="36" y="87" width="3" height="4" fill="#E6FCFC" />
<rect x="58" y="87" width="3" height="5" fill="#E6FCFC" />
<rect x="61" y="87" width="2" height="2" fill="#FFDF68" />
<rect x="65" y="87" width="3" height="3" fill="#FFDF68" />
<rect x="68" y="87" width="2" height="1" fill="#F2BA4D" />
<rect x="70" y="87" width="2" height="3" fill="#FFDF68" />
<rect x="85" y="87" width="2" height="1" fill="#FFDF68" />
<rect x="87" y="87" width="3" height="7" fill="#88FF87" />
<rect x="4" y="88" width="1" height="1" fill="#E6FCFC" />
<rect x="7" y="88" width="2" height="2" fill="#E6FCFC" />
<rect x="10" y="88" width="1" height="1" fill="#E6FCFC" />
<rect x="13" y="88" width="3" height="3" fill="#E6FCFC" />
<rect x="16" y="88" width="4" height="1" fill="#7B29C1" />
<rect x="20" y="88" width="1" height="1" fill="#E6FCFC" />
<rect x="25" y="88" width="2" height="2" fill="#E6FCFC" />
<rect x="27" y="88" width="1" height="1" fill="#7B29C1" />
<rect x="28" y="88" width="5" height="3" fill="#E6FCFC" />
<rect x="68" y="88" width="2" height="2" fill="#FFDF68" />
<rect x="85" y="88" width="2" height="6" fill="#88FF87" />
<rect x="105" y="88" width="3" height="1" fill="#88FF87" />
<rect x="108" y="88" width="5" height="3" fill="#734B5E" />
<rect x="113" y="88" width="4" height="1" fill="#88FF87" />
<rect x="4" y="89" width="1" height="35" fill="#7B29C1" />
<rect x="9" y="89" width="3" height="1" fill="#7B29C1" />
<rect x="12" y="89" width="1" height="2" fill="#E6FCFC" />
<rect x="16" y="89" width="3" height="2" fill="#E6FCFC" />
<rect x="19" y="89" width="3" height="1" fill="#7B29C1" />
<rect x="22" y="89" width="3" height="3" fill="#E6FCFC" />
<rect x="27" y="89" width="1" height="2" fill="#E6FCFC" />
<rect x="61" y="89" width="4" height="2" fill="#E6FCFC" />
<rect x="80" y="89" width="2" height="1" fill="#FFDF68" />
<rect x="82" y="89" width="3" height="4" fill="#88FF87" />
<rect x="105" y="89" width="2" height="11" fill="#88FF87" />
<rect x="107" y="89" width="1" height="1" fill="#734B5E" />
<rect x="113" y="89" width="1" height="1" fill="#734B5E" />
<rect x="114" y="89" width="3" height="13" fill="#88FF87" />
<rect x="5" y="90" width="4" height="34" fill="#7B29C1" />
<rect x="9" y="90" width="3" height="1" fill="#E6FCFC" />
<rect x="19" y="90" width="3" height="1" fill="#E6FCFC" />
<rect x="25" y="90" width="1" height="1" fill="#7B29C1" />
<rect x="26" y="90" width="1" height="2" fill="#E6FCFC" />
<rect x="65" y="90" width="1" height="1" fill="#E6FCFC" />
<rect x="66" y="90" width="7" height="34" fill="#7B29C1" />
<rect x="73" y="90" width="9" height="1" fill="#88FF87" />
<rect x="107" y="90" width="1" height="10" fill="#88FF87" />
<rect x="113" y="90" width="1" height="12" fill="#88FF87" />
<rect x="9" y="91" width="12" height="33" fill="#7B29C1" />
<rect x="21" y="91" width="1" height="1" fill="#E6FCFC" />
<rect x="25" y="91" width="1" height="1" fill="#E6FCFC" />
<rect x="27" y="91" width="22" height="33" fill="#7B29C1" />
<rect x="61" y="91" width="2" height="1" fill="#E6FCFC" />
<rect x="63" y="91" width="3" height="33" fill="#7B29C1" />
<rect x="73" y="91" width="4" height="33" fill="#7B29C1" />
<rect x="77" y="91" width="5" height="1" fill="#88FF87" />
<rect x="108" y="91" width="5" height="9" fill="#88FF87" />
<rect x="21" y="92" width="6" height="32" fill="#7B29C1" />
<rect x="49" y="92" width="14" height="32" fill="#7B29C1" />
<rect x="77" y="92" width="3" height="32" fill="#7B29C1" />
<rect x="80" y="92" width="2" height="1" fill="#88FF87" />
<rect x="80" y="93" width="4" height="31" fill="#7B29C1" />
<rect x="84" y="93" width="1" height="1" fill="#88FF87" />
<rect x="84" y="94" width="4" height="30" fill="#7B29C1" />
<rect x="88" y="94" width="2" height="1" fill="#88FF87" />
<rect x="88" y="95" width="3" height="29" fill="#7B29C1" />
<rect x="91" y="95" width="2" height="1" fill="#88FF87" />
<rect x="91" y="96" width="4" height="28" fill="#7B29C1" />
<rect x="95" y="97" width="3" height="27" fill="#7B29C1" />
<rect x="98" y="98" width="4" height="26" fill="#7B29C1" />
<rect x="102" y="99" width="3" height="25" fill="#7B29C1" />
<rect x="105" y="100" width="4" height="24" fill="#7B29C1" />
<rect x="109" y="100" width="4" height="1" fill="#88FF87" />
<rect x="109" y="101" width="4" height="23" fill="#7B29C1" />
<rect x="113" y="102" width="3" height="22" fill="#7B29C1" />
<rect x="116" y="102" width="1" height="1" fill="#88FF87" />
<rect x="116" y="103" width="4" height="21" fill="#7B29C1" />
<rect x="120" y="103" width="3" height="1" fill="#88FF87" />
<rect x="120" y="104" width="3" height="20" fill="#7B29C1" />
<rect x="123" y="105" width="1" height="19" fill="#7B29C1" />
<rect x="4" y="124" width="120" height="4" fill="#1A2750" />
</svg>